<svg width="48" height="48" viewBox="0 0 48 48" fill="none" xmlns="http://www.w3.org/2000/svg">
<rect width="48" height="48" fill="white"/>
<mask id="path-2-inside-1" fill="white">
<path fill-rule="evenodd" clip-rule="evenodd" d="M18.4771 7C17.5991 7 16.8238 7.57264 16.5656 8.41183L15.4615 12H7C3.13401 12 0 15.134 0 19V34C0 37.866 3.13401 41 7 41H41C44.866 41 48 37.866 48 34V19C48 15.134 44.866 12 41 12H32.9231L31.4931 8.28204C31.196 7.50966 30.4539 7 29.6264 7H18.4771Z"/>
</mask>
<path d="M16.5656 8.41183L19.4329 9.29409L19.4329 9.29408L16.5656 8.41183ZM15.4615 12V15H17.6773L18.3289 12.8823L15.4615 12ZM32.9231 12L30.123 13.0769L30.8627 15H32.9231V12ZM31.4931 8.28204L34.2931 7.20511V7.2051L31.4931 8.28204ZM19.4329 9.29408C19.3038 9.71368 18.9162 10 18.4771 10V4C16.2821 4 14.3438 5.43161 13.6983 7.52957L19.4329 9.29408ZM18.3289 12.8823L19.4329 9.29409L13.6983 7.52957L12.5942 11.1177L18.3289 12.8823ZM7 15H15.4615V9H7V15ZM3 19C3 16.7909 4.79086 15 7 15V9C1.47715 9 -3 13.4772 -3 19H3ZM3 34V19H-3V34H3ZM7 38C4.79086 38 3 36.2091 3 34H-3C-3 39.5228 1.47715 44 7 44V38ZM41 38H7V44H41V38ZM45 34C45 36.2091 43.2091 38 41 38V44C46.5228 44 51 39.5228 51 34H45ZM45 19V34H51V19H45ZM41 15C43.2091 15 45 16.7909 45 19H51C51 13.4772 46.5228 9 41 9V15ZM32.9231 15H41V9H32.9231V15ZM28.6931 9.35898L30.123 13.0769L35.7231 10.9231L34.2931 7.20511L28.6931 9.35898ZM29.6264 10C29.2126 10 28.8416 9.74517 28.6931 9.35898L34.2931 7.2051C33.5505 5.27415 31.6953 4 29.6264 4V10ZM18.4771 10H29.6264V4H18.4771V10Z" fill="#152C5B" mask="url(#path-2-inside-1)"/>
<circle cx="24" cy="27" r="6.5" stroke="#FF498B" stroke-width="3"/>
<line x1="34.5" y1="19.5" x2="40.5" y2="19.5" stroke="#FF498B" stroke-width="3" stroke-linecap="round"/>
</svg>
