<svg width="48" height="48" viewBox="0 0 48 48" fill="none" xmlns="http://www.w3.org/2000/svg">
<rect width="48" height="48" fill="white"/>
<path d="M34.5 41.5C34.5 41.7915 34.3409 42.2666 33.6115 42.8893C32.8878 43.5072 31.7523 44.1315 30.2185 44.6854C27.1633 45.7886 22.8437 46.5 18 46.5C13.1563 46.5 8.83665 45.7886 5.78154 44.6854C4.24768 44.1315 3.11222 43.5072 2.38849 42.8893C1.65911 42.2666 1.5 41.7915 1.5 41.5C1.5 41.2085 1.65911 40.7334 2.38849 40.1107C3.11222 39.4928 4.24768 38.8685 5.78154 38.3146C8.83665 37.2114 13.1563 36.5 18 36.5C22.8437 36.5 27.1633 37.2114 30.2185 38.3146C31.7523 38.8685 32.8878 39.4928 33.6115 40.1107C34.3409 40.7334 34.5 41.2085 34.5 41.5Z" stroke="#152C5B" stroke-width="3"/>
<path d="M32.5 12.3511C32.5 18.4288 30.1056 25.8464 26.9849 31.7805C25.4304 34.7364 23.734 37.2502 22.1348 39.0005C21.3346 39.8764 20.5911 40.5253 19.9354 40.9457C19.2669 41.3743 18.7928 41.5 18.5 41.5C18.2072 41.5 17.733 41.3743 17.0645 40.9457C16.4089 40.5253 15.6654 39.8764 14.8652 39.0005C13.266 37.2502 11.5695 34.7364 10.0151 31.7805C6.8944 25.8464 4.5 18.4288 4.5 12.3511C4.5 6.65805 10.4323 1.5 18.5 1.5C26.5677 1.5 32.5 6.65805 32.5 12.3511Z" fill="white" stroke="#152C5B" stroke-width="3"/>
<circle cx="18.5" cy="15.5" r="5" stroke="#FF498B" stroke-width="3"/>
</svg>
