<svg width="48" height="48" viewBox="0 0 48 48" fill="none" xmlns="http://www.w3.org/2000/svg">
<rect width="48" height="48" fill="white"/>
<mask id="path-2-inside-1" fill="white">
<path d="M14 28C14.5523 28 15 28.4477 15 29L15 43C15 45.2091 13.2091 47 11 47C8.79086 47 7 45.2091 7 43L7 29C7 28.4477 7.44772 28 8 28L14 28Z"/>
</mask>
<path d="M14 28C14.5523 28 15 28.4477 15 29L15 43C15 45.2091 13.2091 47 11 47C8.79086 47 7 45.2091 7 43L7 29C7 28.4477 7.44772 28 8 28L14 28Z" stroke="#152C5B" stroke-width="6" mask="url(#path-2-inside-1)"/>
<mask id="path-3-inside-2" fill="white">
<path d="M40 28C40.5523 28 41 28.4477 41 29L41 43C41 45.2091 39.2091 47 37 47C34.7909 47 33 45.2091 33 43L33 29C33 28.4477 33.4477 28 34 28L40 28Z"/>
</mask>
<path d="M40 28C40.5523 28 41 28.4477 41 29L41 43C41 45.2091 39.2091 47 37 47C34.7909 47 33 45.2091 33 43L33 29C33 28.4477 33.4477 28 34 28L40 28Z" stroke="#152C5B" stroke-width="6" mask="url(#path-3-inside-2)"/>
<path d="M6.73607 20.882C7.15955 20.035 8.0252 19.5 8.97214 19.5H39.4407C40.4158 19.5 41.3019 20.067 41.7106 20.9524L44.0183 25.9524C44.7828 27.6089 43.5728 29.5 41.7484 29.5H6.47214C4.61368 29.5 3.40494 27.5442 4.23607 25.882L6.73607 20.882Z" stroke="#152C5B" stroke-width="3"/>
<line x1="30.5" y1="13.5" x2="30.5" y2="19.5" stroke="#152C5B" stroke-width="3" stroke-linecap="round" stroke-linejoin="round"/>
<line x1="17.5" y1="13.5" x2="17.5" y2="19.5" stroke="#152C5B" stroke-width="3" stroke-linecap="round" stroke-linejoin="round"/>
<mask id="path-7-inside-3" fill="white">
<path d="M34 2C34.5523 2 35 2.44772 35 3L35 9.5C35 11.9853 32.9853 14 30.5 14C28.0147 14 26 11.9853 26 9.5L26 3C26 2.44771 26.4477 2 27 2L34 2Z"/>
</mask>
<path d="M34 2C34.5523 2 35 2.44772 35 3L35 9.5C35 11.9853 32.9853 14 30.5 14C28.0147 14 26 11.9853 26 9.5L26 3C26 2.44771 26.4477 2 27 2L34 2Z" stroke="#FF498B" stroke-width="6" mask="url(#path-7-inside-3)"/>
<mask id="path-8-inside-4" fill="white">
<path d="M21 2C21.5523 2 22 2.44772 22 3L22 9.5C22 11.9853 19.9853 14 17.5 14C15.0147 14 13 11.9853 13 9.5L13 3C13 2.44771 13.4477 2 14 2L21 2Z"/>
</mask>
<path d="M21 2C21.5523 2 22 2.44772 22 3L22 9.5C22 11.9853 19.9853 14 17.5 14C15.0147 14 13 11.9853 13 9.5L13 3C13 2.44771 13.4477 2 14 2L21 2Z" stroke="#FF498B" stroke-width="6" mask="url(#path-8-inside-4)"/>
</svg>
