<svg width="48" height="48" viewBox="0 0 48 48" fill="none" xmlns="http://www.w3.org/2000/svg">
<rect width="48" height="48" fill="white"/>
<path d="M36.5 20.5V6.5L32.5 2.5L28.5 6.5" stroke="#FF498B" stroke-width="3" stroke-linecap="round" stroke-linejoin="round"/>
<path d="M1.5 23C1.5 21.6193 2.61929 20.5 4 20.5H44C45.3807 20.5 46.5 21.6193 46.5 23V26C46.5 27.3807 45.3807 28.5 44 28.5H4C2.61929 28.5 1.5 27.3807 1.5 26V23Z" stroke="#152C5B" stroke-width="3"/>
<line x1="11.5" y1="44.5" x2="11.5" y2="46.5" stroke="#152C5B" stroke-width="3" stroke-linecap="round" stroke-linejoin="round"/>
<line x1="36.5" y1="44.5" x2="36.5" y2="46.5" stroke="#152C5B" stroke-width="3" stroke-linecap="round" stroke-linejoin="round"/>
<path d="M6.5 28.5H41.5V40C41.5 41.933 39.933 43.5 38 43.5H10C8.067 43.5 6.5 41.933 6.5 40V28.5Z" stroke="#152C5B" stroke-width="3"/>
</svg>
